<?xml version="1.0" encoding="iso-8859-1"?>
<!-- Generator: Adobe Illustrator 18.1.1, SVG Export Plug-In . SVG Version: 6.00 Build 0)  -->
<svg version="1.1" id="Capa_1" xmlns="http://www.w3.org/2000/svg" xmlns:xlink="http://www.w3.org/1999/xlink" x="0px" y="0px"
	 viewBox="0 0 612.002 612.002" style="enable-background:new 0 0 612.002 612.002;" xml:space="preserve">
<g>
	<g>
		<path d="M560.415,141.623h-81.266L464.411,92.68c-6.562-21.794-26.634-36.711-49.396-36.711H305.777
			c-22.762,0-42.832,14.917-49.396,36.711l-14.738,48.944H51.587C23.096,141.623,0,164.719,0,193.208v311.237
			c0,28.491,23.096,51.587,51.587,51.587h508.828c28.491,0,51.587-23.096,51.587-51.587V193.208
			C612,164.719,588.904,141.623,560.415,141.623z M360.038,483.686c-75.972,0-137.563-61.59-137.563-137.563
			s61.59-137.563,137.563-137.563s137.565,61.59,137.565,137.563S436.012,483.686,360.038,483.686z"/>
		<path d="M360.038,260.147c-47.482,0-85.976,38.494-85.976,85.976s38.494,85.978,85.976,85.978s85.978-38.496,85.978-85.978
			S407.521,260.147,360.038,260.147z M419.916,342.764c-8.099,8.099-28.276,1.052-45.069-15.739
			c-16.791-16.793-23.836-36.97-15.737-45.069c8.099-8.099,28.276-1.054,45.067,15.739
			C420.968,314.486,428.015,334.664,419.916,342.764z"/>
		<path d="M168.949,114.542c0-12.58-10.197-22.775-22.775-22.775H97.149c-12.578,0-22.777,10.197-22.777,22.775v11.487h94.575
			v-11.487H168.949z"/>
	</g>
</g>
<g>
</g>
<g>
</g>
<g>
</g>
<g>
</g>
<g>
</g>
<g>
</g>
<g>
</g>
<g>
</g>
<g>
</g>
<g>
</g>
<g>
</g>
<g>
</g>
<g>
</g>
<g>
</g>
<g>
</g>
</svg>
