<svg id="Capa_1" enable-background="new 0 0 512 512" height="512" viewBox="0 0 512 512" width="512" xmlns="http://www.w3.org/2000/svg"><g><path d="m436 170h-15v-15c0-8.284-6.716-15-15-15s-15 6.716-15 15v15h-30v-95c0-41.355-33.645-75-75-75h-60c-41.355 0-75 33.645-75 75v95h-30v-15c0-8.284-6.716-15-15-15s-15 6.716-15 15v15h-15c-8.284 0-15 6.716-15 15s6.716 15 15 15h15v105c0 67.25 53.384 122.257 120 124.891v52.109h-55c-8.284 0-15 6.716-15 15s6.716 15 15 15h200c8.284 0 15-6.716 15-15s-6.716-15-15-15h-55v-52.109c66.616-2.634 120-57.641 120-124.891v-105h15c8.284 0 15-6.716 15-15s-6.716-15-15-15zm-255 120h35c8.284 0 15-6.716 15-15s-6.716-15-15-15h-35v-30h35c8.284 0 15-6.716 15-15s-6.716-15-15-15h-35v-30h35c8.284 0 15-6.716 15-15s-6.716-15-15-15h-35v-30h35c8.284 0 15-6.716 15-15s-6.716-15-15-15h-35v-5c0-24.813 20.187-45 45-45h60c24.813 0 45 20.187 45 45v5h-35c-8.284 0-15 6.716-15 15s6.716 15 15 15h35v30h-35c-8.284 0-15 6.716-15 15s6.716 15 15 15h35v30h-35c-8.284 0-15 6.716-15 15s6.716 15 15 15h35v30h-35c-8.284 0-15 6.716-15 15s6.716 15 15 15h35v5c0 24.813-20.187 45-45 45h-60c-24.813 0-45-20.187-45-45zm90 192h-30v-52h30zm120-177c0 52.383-42.617 95-95 95h-80c-52.383 0-95-42.617-95-95v-105h30v95c0 41.355 33.645 75 75 75h60c41.355 0 75-33.645 75-75v-95h30z"/><path d="m105 30c8.284 0 15-6.716 15-15 0-8.284-6.716-15-15-15-57.99 0-105 47.01-105 105 0 8.284 6.716 15 15 15 8.284 0 15-6.716 15-15 0-41.421 33.579-75 75-75z"/><path d="m75 120c8.284 0 15-6.716 15-15 0-8.284 6.716-15 15-15 8.284 0 15-6.716 15-15 0-8.284-6.716-15-15-15-24.853 0-45 20.147-45 45 0 8.284 6.716 15 15 15z"/><path d="m407 0c-8.284 0-15 6.716-15 15 0 8.284 6.716 15 15 15 41.421 0 75 33.579 75 75 0 8.284 6.716 15 15 15 8.284 0 15-6.716 15-15 0-57.99-47.01-105-105-105z"/><path d="m407 60c-8.284 0-15 6.716-15 15 0 8.284 6.716 15 15 15s15 6.716 15 15 6.716 15 15 15c8.284 0 15-6.716 15-15 0-24.853-20.147-45-45-45z"/></g></svg>